<?xml version="1.0" encoding="UTF-8" standalone="no"?>
<svg width="142.522mm" height="80.7861mm"
 viewBox="-60 -135 406 231"
 xmlns="http://www.w3.org/2000/svg" xmlns:xlink="http://www.w3.org/1999/xlink" version="1.2" baseProfile="tiny">
<title>Qt SVG Document</title>
<desc>Generated with Qt</desc>
<defs>
</defs>
<g fill="none" stroke="black" stroke-width="1" fill-rule="evenodd" stroke-linecap="square" stroke-linejoin="bevel" >

<g fill="none" stroke="#000000" stroke-opacity="1" stroke-width="1" stroke-linecap="square" stroke-linejoin="bevel" transform="matrix(1,0,0,1,0,0)"
font-family="Inconsolata" font-size="20" font-weight="400" font-style="normal" 
>
</g>

<g fill="none" stroke="#000000" stroke-opacity="1" stroke-width="1" stroke-linecap="square" stroke-linejoin="bevel" transform="matrix(1,0,0,1,0,0)"
font-family="Inconsolata" font-size="20" font-weight="400" font-style="normal" 
>
</g>

<g fill="#ffffff" fill-opacity="1" stroke="#000000" stroke-opacity="1" stroke-width="1" stroke-linecap="square" stroke-linejoin="bevel" transform="matrix(1,0,0,1,0,0)"
font-family="Inconsolata" font-size="18" font-weight="400" font-style="normal" 
>
<circle cx="0" cy="0" r="25"/>
<text fill="#000000" fill-opacity="1" stroke="none" xml:space="preserve" x="-4.5" y="6" font-family="Inconsolata" font-size="18" font-weight="400" font-style="normal" 
 >S</text>
</g>

<g fill="none" stroke="#000000" stroke-opacity="1" stroke-width="1" stroke-linecap="square" stroke-linejoin="bevel" transform="matrix(1,0,0,1,0,0)"
font-family="Inconsolata" font-size="20" font-weight="400" font-style="normal" 
>
</g>

<g fill="none" stroke="#000000" stroke-opacity="1" stroke-width="1" stroke-linecap="square" stroke-linejoin="bevel" transform="matrix(1,0,0,1,0,0)"
font-family="Inconsolata" font-size="20" font-weight="400" font-style="normal" 
>
</g>

<g fill="#ffffff" fill-opacity="1" stroke="#000000" stroke-opacity="1" stroke-width="1" stroke-linecap="square" stroke-linejoin="bevel" transform="matrix(1,0,0,1,0,0)"
font-family="Inconsolata" font-size="18" font-weight="400" font-style="normal" 
>
<circle cx="160" cy="70" r="25"/>
<text fill="#000000" fill-opacity="1" stroke="none" xml:space="preserve" x="155.5" y="76" font-family="Inconsolata" font-size="18" font-weight="400" font-style="normal" 
 >B</text>
</g>

<g fill="none" stroke="#000000" stroke-opacity="1" stroke-width="1" stroke-linecap="square" stroke-linejoin="bevel" transform="matrix(1,0,0,1,0,0)"
font-family="Inconsolata" font-size="20" font-weight="400" font-style="normal" 
>
</g>

<g fill="none" stroke="#000000" stroke-opacity="1" stroke-width="1" stroke-linecap="square" stroke-linejoin="bevel" transform="matrix(1,0,0,1,0,0)"
font-family="Inconsolata" font-size="20" font-weight="400" font-style="normal" 
>
</g>

<g fill="#ffffff" fill-opacity="1" stroke="#000000" stroke-opacity="1" stroke-width="1" stroke-linecap="square" stroke-linejoin="bevel" transform="matrix(1,0,0,1,0,0)"
font-family="Inconsolata" font-size="18" font-weight="400" font-style="normal" 
>
<circle cx="320" cy="0" r="25"/>
<text fill="#000000" fill-opacity="1" stroke="none" xml:space="preserve" x="315.5" y="6" font-family="Inconsolata" font-size="18" font-weight="400" font-style="normal" 
 >F</text>
</g>

<g fill="none" stroke="#000000" stroke-opacity="1" stroke-width="1" stroke-linecap="square" stroke-linejoin="bevel" transform="matrix(1,0,0,1,0,0)"
font-family="Inconsolata" font-size="20" font-weight="400" font-style="normal" 
>
</g>

<g fill="none" stroke="#000000" stroke-opacity="1" stroke-width="1" stroke-linecap="square" stroke-linejoin="bevel" transform="matrix(1,0,0,1,0,0)"
font-family="Inconsolata" font-size="20" font-weight="400" font-style="normal" 
>
</g>

<g fill="#ffffff" fill-opacity="1" stroke="#000000" stroke-opacity="1" stroke-width="1" stroke-linecap="square" stroke-linejoin="bevel" transform="matrix(1,0,0,1,0,0)"
font-family="Inconsolata" font-size="18" font-weight="400" font-style="normal" 
>
<circle cx="160" cy="-70" r="25"/>
<text fill="#000000" fill-opacity="1" stroke="none" xml:space="preserve" x="155.5" y="-64" font-family="Inconsolata" font-size="18" font-weight="400" font-style="normal" 
 >A</text>
</g>

<g fill="none" stroke="#000000" stroke-opacity="1" stroke-width="1" stroke-linecap="square" stroke-linejoin="bevel" transform="matrix(1,0,0,1,0,0)"
font-family="Inconsolata" font-size="20" font-weight="400" font-style="normal" 
>
</g>

<g fill="none" stroke="#000000" stroke-opacity="1" stroke-width="1" stroke-linecap="square" stroke-linejoin="bevel" transform="matrix(1,0,0,1,0,0)"
font-family="Inconsolata" font-size="20" font-weight="400" font-style="normal" 
>
</g>

<g fill="#000000" fill-opacity="0" stroke="#000000" stroke-opacity="1" stroke-width="1" stroke-linecap="square" stroke-linejoin="bevel" transform="matrix(1,0,0,1,0,0)"
font-family="Inconsolata" font-size="18" font-weight="400" font-style="normal" 
>
<circle cx="320" cy="0" r="18.5"/>
</g>

<g fill="none" stroke="#000000" stroke-opacity="1" stroke-width="1" stroke-linecap="square" stroke-linejoin="bevel" transform="matrix(1,0,0,1,0,0)"
font-family="Inconsolata" font-size="20" font-weight="400" font-style="normal" 
>
</g>

<g fill="none" stroke="#000000" stroke-opacity="1" stroke-width="1" stroke-linecap="square" stroke-linejoin="bevel" transform="matrix(1,0,0,1,0,0)"
font-family="Inconsolata" font-size="20" font-weight="400" font-style="normal" 
>
</g>

<g fill="#000000" fill-opacity="1" stroke="#000000" stroke-opacity="1" stroke-width="1" stroke-linecap="square" stroke-linejoin="bevel" transform="matrix(1,0,0,1,0,0)"
font-family="Inconsolata" font-size="18" font-weight="400" font-style="normal" 
>
<polyline fill="none" vector-effect="none" points="25,-10 135,-60 " />
<path vector-effect="none" fill-rule="evenodd" d="M135,-60 L125.731,-51.3929 L122.42,-58.6758 L135,-60"/>
</g>

<g fill="#000000" fill-opacity="0" stroke="none" transform="matrix(1,0,0,1,0,0)"
font-family="Inconsolata" font-size="18" font-weight="400" font-style="normal" 
>
<rect x="68.9149" y="-57.4837" width="9" height="18"/>
</g>

<g fill="#000000" fill-opacity="1" stroke="#000000" stroke-opacity="1" stroke-width="1" stroke-linecap="square" stroke-linejoin="bevel" transform="matrix(1,0,0,1,0,0)"
font-family="Inconsolata" font-size="18" font-weight="400" font-style="normal" 
>
<text fill="#000000" fill-opacity="1" stroke="none" xml:space="preserve" x="68.9063" y="-42.4688" font-family="Inconsolata" font-size="18" font-weight="400" font-style="normal" 
 >a</text>
</g>

<g fill="none" stroke="#000000" stroke-opacity="1" stroke-width="1" stroke-linecap="square" stroke-linejoin="bevel" transform="matrix(1,0,0,1,0,0)"
font-family="Inconsolata" font-size="20" font-weight="400" font-style="normal" 
>
</g>

<g fill="none" stroke="#000000" stroke-opacity="1" stroke-width="1" stroke-linecap="square" stroke-linejoin="bevel" transform="matrix(1,0,0,1,0,0)"
font-family="Inconsolata" font-size="20" font-weight="400" font-style="normal" 
>
</g>

<g fill="#000000" fill-opacity="1" stroke="#000000" stroke-opacity="1" stroke-width="1" stroke-linecap="square" stroke-linejoin="bevel" transform="matrix(1,0,0,1,0,0)"
font-family="Inconsolata" font-size="18" font-weight="400" font-style="normal" 
>
<polyline fill="none" vector-effect="none" points="25,10 135,60 " />
<path vector-effect="none" fill-rule="evenodd" d="M135,60 L122.42,58.6758 L125.731,51.3929 L135,60"/>
</g>

<g fill="#000000" fill-opacity="0" stroke="none" transform="matrix(1,0,0,1,0,0)"
font-family="Inconsolata" font-size="18" font-weight="400" font-style="normal" 
>
<rect x="81.329" y="12.1727" width="9" height="18"/>
</g>

<g fill="#000000" fill-opacity="1" stroke="#000000" stroke-opacity="1" stroke-width="1" stroke-linecap="square" stroke-linejoin="bevel" transform="matrix(1,0,0,1,0,0)"
font-family="Inconsolata" font-size="18" font-weight="400" font-style="normal" 
>
<text fill="#000000" fill-opacity="1" stroke="none" xml:space="preserve" x="81.3281" y="27.1719" font-family="Inconsolata" font-size="18" font-weight="400" font-style="normal" 
 >b</text>
</g>

<g fill="none" stroke="#000000" stroke-opacity="1" stroke-width="1" stroke-linecap="square" stroke-linejoin="bevel" transform="matrix(1,0,0,1,0,0)"
font-family="Inconsolata" font-size="20" font-weight="400" font-style="normal" 
>
</g>

<g fill="none" stroke="#000000" stroke-opacity="1" stroke-width="1" stroke-linecap="square" stroke-linejoin="bevel" transform="matrix(1,0,0,1,0,0)"
font-family="Inconsolata" font-size="20" font-weight="400" font-style="normal" 
>
</g>

<g fill="#000000" fill-opacity="1" stroke="#000000" stroke-opacity="1" stroke-width="1" stroke-linecap="square" stroke-linejoin="bevel" transform="matrix(1,0,0,1,0,0)"
font-family="Inconsolata" font-size="18" font-weight="400" font-style="normal" 
>
<polyline fill="none" vector-effect="none" points="185,-60 295,-10 " />
<path vector-effect="none" fill-rule="evenodd" d="M295,-10 L282.42,-11.3242 L285.731,-18.6071 L295,-10"/>
</g>

<g fill="#000000" fill-opacity="0" stroke="none" transform="matrix(1,0,0,1,0,0)"
font-family="Inconsolata" font-size="18" font-weight="400" font-style="normal" 
>
<rect x="241.329" y="-57.8273" width="9" height="18"/>
</g>

<g fill="#000000" fill-opacity="1" stroke="#000000" stroke-opacity="1" stroke-width="1" stroke-linecap="square" stroke-linejoin="bevel" transform="matrix(1,0,0,1,0,0)"
font-family="Inconsolata" font-size="18" font-weight="400" font-style="normal" 
>
<text fill="#000000" fill-opacity="1" stroke="none" xml:space="preserve" x="241.328" y="-42.8125" font-family="Inconsolata" font-size="18" font-weight="400" font-style="normal" 
 >b</text>
</g>

<g fill="none" stroke="#000000" stroke-opacity="1" stroke-width="1" stroke-linecap="square" stroke-linejoin="bevel" transform="matrix(1,0,0,1,0,0)"
font-family="Inconsolata" font-size="20" font-weight="400" font-style="normal" 
>
</g>

<g fill="none" stroke="#000000" stroke-opacity="1" stroke-width="1" stroke-linecap="square" stroke-linejoin="bevel" transform="matrix(1,0,0,1,0,0)"
font-family="Inconsolata" font-size="20" font-weight="400" font-style="normal" 
>
</g>

<g fill="#000000" fill-opacity="1" stroke="#000000" stroke-opacity="1" stroke-width="1" stroke-linecap="square" stroke-linejoin="bevel" transform="matrix(1,0,0,1,0,0)"
font-family="Inconsolata" font-size="18" font-weight="400" font-style="normal" 
>
<polyline fill="none" vector-effect="none" points="185,60 295,10 " />
<path vector-effect="none" fill-rule="evenodd" d="M295,10 L285.731,18.6071 L282.42,11.3242 L295,10"/>
</g>

<g fill="#000000" fill-opacity="0" stroke="none" transform="matrix(1,0,0,1,0,0)"
font-family="Inconsolata" font-size="18" font-weight="400" font-style="normal" 
>
<rect x="228.915" y="12.5163" width="9" height="18"/>
</g>

<g fill="#000000" fill-opacity="1" stroke="#000000" stroke-opacity="1" stroke-width="1" stroke-linecap="square" stroke-linejoin="bevel" transform="matrix(1,0,0,1,0,0)"
font-family="Inconsolata" font-size="18" font-weight="400" font-style="normal" 
>
<text fill="#000000" fill-opacity="1" stroke="none" xml:space="preserve" x="228.906" y="27.5156" font-family="Inconsolata" font-size="18" font-weight="400" font-style="normal" 
 >c</text>
</g>

<g fill="none" stroke="#000000" stroke-opacity="1" stroke-width="1" stroke-linecap="square" stroke-linejoin="bevel" transform="matrix(1,0,0,1,0,0)"
font-family="Inconsolata" font-size="20" font-weight="400" font-style="normal" 
>
</g>

<g fill="none" stroke="#000000" stroke-opacity="1" stroke-width="1" stroke-linecap="square" stroke-linejoin="bevel" transform="matrix(1,0,0,1,0,0)"
font-family="Inconsolata" font-size="20" font-weight="400" font-style="normal" 
>
</g>

<g fill="#000000" fill-opacity="1" stroke="#000000" stroke-opacity="1" stroke-width="1" stroke-linecap="square" stroke-linejoin="bevel" transform="matrix(1,0,0,1,0,0)"
font-family="Inconsolata" font-size="18" font-weight="400" font-style="normal" 
>
<polyline fill="none" vector-effect="none" points="135,-80 105,-110 " />
<polyline fill="none" vector-effect="none" points="105,-110 215,-110 " />
<polyline fill="none" vector-effect="none" points="215,-110 185,-80 " />
<path vector-effect="none" fill-rule="evenodd" d="M185,-80 L190.657,-91.3137 L196.314,-85.6569 L185,-80"/>
</g>

<g fill="#000000" fill-opacity="0" stroke="none" transform="matrix(1,0,0,1,0,0)"
font-family="Inconsolata" font-size="18" font-weight="400" font-style="normal" 
>
<rect x="154.5" y="-134" width="9" height="18"/>
</g>

<g fill="#000000" fill-opacity="1" stroke="#000000" stroke-opacity="1" stroke-width="1" stroke-linecap="square" stroke-linejoin="bevel" transform="matrix(1,0,0,1,0,0)"
font-family="Inconsolata" font-size="18" font-weight="400" font-style="normal" 
>
<text fill="#000000" fill-opacity="1" stroke="none" xml:space="preserve" x="154.5" y="-119" font-family="Inconsolata" font-size="18" font-weight="400" font-style="normal" 
 >a</text>
</g>

<g fill="none" stroke="#000000" stroke-opacity="1" stroke-width="1" stroke-linecap="square" stroke-linejoin="bevel" transform="matrix(1,0,0,1,0,0)"
font-family="Inconsolata" font-size="20" font-weight="400" font-style="normal" 
>
</g>

<g fill="none" stroke="#000000" stroke-opacity="1" stroke-width="1" stroke-linecap="square" stroke-linejoin="bevel" transform="matrix(1,0,0,1,0,0)"
font-family="Inconsolata" font-size="20" font-weight="400" font-style="normal" 
>
</g>

<g fill="#000000" fill-opacity="1" stroke="#000000" stroke-opacity="1" stroke-width="1" stroke-linecap="square" stroke-linejoin="bevel" transform="matrix(1,0,0,1,0,0)"
font-family="Inconsolata" font-size="18" font-weight="400" font-style="normal" 
>
<polyline fill="none" vector-effect="none" points="-59,0 -25,0 " />
<path vector-effect="none" fill-rule="evenodd" d="M-25,0 L-37,4 L-37,-4 L-25,0"/>
</g>

<g fill="none" stroke="#000000" stroke-opacity="1" stroke-width="1" stroke-linecap="square" stroke-linejoin="bevel" transform="matrix(1,0,0,1,0,0)"
font-family="Inconsolata" font-size="20" font-weight="400" font-style="normal" 
>
</g>

<g fill="none" stroke="#000000" stroke-opacity="1" stroke-width="1" stroke-linecap="square" stroke-linejoin="bevel" transform="matrix(1,0,0,1,0,0)"
font-family="Inconsolata" font-size="20" font-weight="400" font-style="normal" 
>
</g>
</g>
</svg>
