<svg xmlns="http://www.w3.org/2000/svg" xmlns:xlink="http://www.w3.org/1999/xlink" contentStyleType="text/css" data-diagram-type="CLASS" height="259px" preserveAspectRatio="none" style="width:493px;height:259px;background:#FFFFFF;" version="1.1" viewBox="0 0 493 259" width="493px" zoomAndPan="magnify"><script xmlns=""/><?plantuml 1.2026.5?><defs/><g><!--class EffectApplier--><g class="entity" data-qualified-name="EffectApplier" data-source-line="2" id="ent0001"><rect fill="#F1F1F1" height="113.1875" rx="2.5" ry="2.5" style="stroke:#181818;stroke-width:0.5;" width="198.6348" x="7" y="131.29"/><ellipse cx="57.0664" cy="147.29" fill="#ADD1B2" rx="11" ry="11" style="stroke:#181818;stroke-width:1;"/><path d="M60.0352,152.9306 Q59.457,153.2275 58.8164,153.3681 Q58.1758,153.5244 57.4727,153.5244 Q54.9727,153.5244 53.6445,151.8838 Q52.332,150.2275 52.332,147.1025 Q52.332,143.9775 53.6445,142.3213 Q54.9727,140.665 57.4727,140.665 Q58.1758,140.665 58.8164,140.8213 Q59.4727,140.9775 60.0352,141.2744 L60.0352,143.9931 Q59.4102,143.415 58.8164,143.1494 Q58.2227,142.8681 57.5977,142.8681 Q56.2539,142.8681 55.5664,143.9463 Q54.8789,145.0088 54.8789,147.1025 Q54.8789,149.1963 55.5664,150.2744 Q56.2539,151.3369 57.5977,151.3369 Q58.2227,151.3369 58.8164,151.0713 Q59.4102,150.79 60.0352,150.2119 L60.0352,152.9306 Z " fill="#000000"/><text fill="#000000" font-family="sans-serif" font-size="14" lengthAdjust="spacing" textLength="90.002" x="77.5664" y="152.1367">EffectApplier</text><line style="stroke:#181818;stroke-width:0.5;" x1="8" x2="204.6348" y1="163.29" y2="163.29"/><text fill="#000000" font-family="sans-serif" font-size="14" lengthAdjust="spacing" textLength="108.6709" x="13" y="180.2851">-image: Image*</text><text fill="#000000" font-family="sans-serif" font-size="14" lengthAdjust="spacing" textLength="154.9775" x="13" y="196.582">-effect: EffectStrategy</text><line style="stroke:#181818;stroke-width:0.5;" x1="8" x2="204.6348" y1="203.8838" y2="203.8838"/><text fill="#000000" font-family="sans-serif" font-size="14" lengthAdjust="spacing" textLength="186.6348" x="13" y="220.8789">+SetEffect(EffectStrategy)</text><text fill="#000000" font-family="sans-serif" font-size="14" lengthAdjust="spacing" textLength="153.5283" x="13" y="237.1757">+ApplyEffect(Image*)</text></g><!--class EffectStrategy--><g class="entity" data-qualified-name="EffectStrategy" data-source-line="8" id="ent0002"><rect fill="#F1F1F1" height="64.2969" rx="2.5" ry="2.5" style="stroke:#181818;stroke-width:0.5;" width="132.4883" x="241.07" y="155.74"/><ellipse cx="256.07" cy="171.74" fill="#B4A7E5" rx="11" ry="11" style="stroke:#181818;stroke-width:1;"/><path d="M251.9919,167.5056 L251.9919,165.3494 L259.3825,165.3494 L259.3825,167.5056 L256.9138,167.5056 L256.9138,175.5837 L259.3825,175.5837 L259.3825,177.74 L251.9919,177.74 L251.9919,175.5837 L254.4606,175.5837 L254.4606,167.5056 L251.9919,167.5056 Z " fill="#000000"/><text fill="#000000" font-family="sans-serif" font-size="14" font-style="italic" lengthAdjust="spacing" textLength="100.4883" x="270.07" y="176.5867">EffectStrategy</text><line style="stroke:#181818;stroke-width:0.5;" x1="242.07" x2="372.5583" y1="187.74" y2="187.74"/><line style="stroke:#181818;stroke-width:0.5;" x1="242.07" x2="372.5583" y1="195.74" y2="195.74"/><text fill="#000000" font-family="sans-serif" font-size="14" lengthAdjust="spacing" textLength="113.0254" x="247.07" y="212.7351">+Apply(Image*)</text></g><!--class BlurEffect--><g class="entity" data-qualified-name="BlurEffect" data-source-line="11" id="ent0003"><rect fill="#F1F1F1" height="64.2969" rx="2.5" ry="2.5" style="stroke:#181818;stroke-width:0.5;" width="125.0254" x="154.8" y="7"/><ellipse cx="180.7797" cy="23" fill="#ADD1B2" rx="11" ry="11" style="stroke:#181818;stroke-width:1;"/><path d="M183.7485,28.6406 Q183.1704,28.9375 182.5297,29.0781 Q181.8891,29.2344 181.186,29.2344 Q178.686,29.2344 177.3579,27.5938 Q176.0454,25.9375 176.0454,22.8125 Q176.0454,19.6875 177.3579,18.0313 Q178.686,16.375 181.186,16.375 Q181.8891,16.375 182.5297,16.5313 Q183.186,16.6875 183.7485,16.9844 L183.7485,19.7031 Q183.1235,19.125 182.5297,18.8594 Q181.936,18.5781 181.311,18.5781 Q179.9672,18.5781 179.2797,19.6563 Q178.5922,20.7188 178.5922,22.8125 Q178.5922,24.9063 179.2797,25.9844 Q179.9672,27.0469 181.311,27.0469 Q181.936,27.0469 182.5297,26.7813 Q183.1235,26.5 183.7485,25.9219 L183.7485,28.6406 Z " fill="#000000"/><text fill="#000000" font-family="sans-serif" font-size="14" lengthAdjust="spacing" textLength="68.626" x="197.2197" y="27.8467">BlurEffect</text><line style="stroke:#181818;stroke-width:0.5;" x1="155.8" x2="278.8254" y1="39" y2="39"/><line style="stroke:#181818;stroke-width:0.5;" x1="155.8" x2="278.8254" y1="47" y2="47"/><text fill="#000000" font-family="sans-serif" font-size="14" lengthAdjust="spacing" textLength="113.0254" x="160.8" y="63.9951">+Apply(Image*)</text></g><!--class MonochromeEffect--><g class="entity" data-qualified-name="MonochromeEffect" data-source-line="14" id="ent0004"><rect fill="#F1F1F1" height="64.2969" rx="2.5" ry="2.5" style="stroke:#181818;stroke-width:0.5;" width="163.7285" x="314.45" y="7"/><ellipse cx="329.45" cy="23" fill="#ADD1B2" rx="11" ry="11" style="stroke:#181818;stroke-width:1;"/><path d="M332.4188,28.6406 Q331.8406,28.9375 331.2,29.0781 Q330.5594,29.2344 329.8563,29.2344 Q327.3563,29.2344 326.0281,27.5938 Q324.7156,25.9375 324.7156,22.8125 Q324.7156,19.6875 326.0281,18.0313 Q327.3563,16.375 329.8563,16.375 Q330.5594,16.375 331.2,16.5313 Q331.8563,16.6875 332.4188,16.9844 L332.4188,19.7031 Q331.7938,19.125 331.2,18.8594 Q330.6063,18.5781 329.9813,18.5781 Q328.6375,18.5781 327.95,19.6563 Q327.2625,20.7188 327.2625,22.8125 Q327.2625,24.9063 327.95,25.9844 Q328.6375,27.0469 329.9813,27.0469 Q330.6063,27.0469 331.2,26.7813 Q331.7938,26.5 332.4188,25.9219 L332.4188,28.6406 Z " fill="#000000"/><text fill="#000000" font-family="sans-serif" font-size="14" lengthAdjust="spacing" textLength="131.7285" x="343.45" y="27.8467">MonochromeEffect</text><line style="stroke:#181818;stroke-width:0.5;" x1="315.45" x2="477.1785" y1="39" y2="39"/><line style="stroke:#181818;stroke-width:0.5;" x1="315.45" x2="477.1785" y1="47" y2="47"/><text fill="#000000" font-family="sans-serif" font-size="14" lengthAdjust="spacing" textLength="113.0254" x="320.45" y="63.9951">+Apply(Image*)</text></g><!--reverse link EffectApplier to EffectStrategy--><g class="link" data-entity-1="ent0001" data-entity-2="ent0002" data-link-type="aggregation" data-source-line="17" id="lnk5"><path codeLine="17" d="M218.03,187.89 C229.64,187.89 229.24,187.89 240.85,187.89" fill="none" id="EffectApplier-backto-EffectStrategy" style="stroke:#181818;stroke-width:1;"/><polygon fill="none" points="206.03,187.89,212.03,191.89,218.03,187.89,212.03,183.89,206.03,187.89" style="stroke:#181818;stroke-width:1;stroke-linejoin:miter;stroke-miterlimit:10;"/></g><!--link BlurEffect to EffectStrategy--><g class="link" data-entity-1="ent0003" data-entity-2="ent0002" data-link-type="extension" data-source-line="18" id="lnk6"><path codeLine="18" d="M236.62,71.62 C251.81,96.38 263.4636,115.3634 278.6336,140.1134" fill="none" id="BlurEffect-to-EffectStrategy" style="stroke:#181818;stroke-width:1;stroke-dasharray:7,7;"/><polygon fill="none" points="288.04,155.46,283.7491,136.9779,273.518,143.2488,288.04,155.46" style="stroke:#181818;stroke-width:1;stroke-linejoin:miter;stroke-miterlimit:10;"/></g><!--link MonochromeEffect to EffectStrategy--><g class="link" data-entity-1="ent0004" data-entity-2="ent0002" data-link-type="extension" data-source-line="19" id="lnk7"><path codeLine="19" d="M377.22,71.62 C362.21,96.38 350.724,115.3192 335.714,140.0692" fill="none" id="MonochromeEffect-to-EffectStrategy" style="stroke:#181818;stroke-width:1;stroke-dasharray:7,7;"/><polygon fill="none" points="326.38,155.46,340.8442,143.1805,330.5837,136.9579,326.38,155.46" style="stroke:#181818;stroke-width:1;stroke-linejoin:miter;stroke-miterlimit:10;"/></g><?plantuml-src TO-x3eCm34NtV4N6KXJKcQ4IbJemCF45QMJ0AYJ8c84-_hs5C00jaoMVatlZxewsrQGRQMhTTGapuQrdI8spEJv0diG4vBKem73IjZK2oQTGsEWIOfcEuoWKJ3oUlPn9CvI327DWlpgiII32CMoOeOy9n5kWPQ126zX4VJlzYuNhltQfU_BklfCvwqn5he5zStsYKuHbnMfxqQ8jYbxdBVuf-YDz0000?></g></svg>