<?xml version="1.0" encoding="UTF-8" standalone="no"?>
<!-- Created with Inkscape (http://www.inkscape.org/) -->

<svg
   xmlns:dc="http://purl.org/dc/elements/1.1/"
   xmlns:cc="http://creativecommons.org/ns#"
   xmlns:rdf="http://www.w3.org/1999/02/22-rdf-syntax-ns#"
   xmlns:svg="http://www.w3.org/2000/svg"
   xmlns="http://www.w3.org/2000/svg"
   xmlns:sodipodi="http://sodipodi.sourceforge.net/DTD/sodipodi-0.dtd"
   xmlns:inkscape="http://www.inkscape.org/namespaces/inkscape"
   width="1646"
   height="586"
   id="svg2"
   sodipodi:version="0.32"
   inkscape:version="0.92.5 (2060ec1f9f, 2020-04-08)"
   version="1.0"
   sodipodi:docname="01_01.svg"
   inkscape:output_extension="org.inkscape.output.svg.inkscape"
   style="background-color:white">
  <defs
     id="defs4">
    <inkscape:perspective
       sodipodi:type="inkscape:persp3d"
       inkscape:vp_x="0 : 270 : 1"
       inkscape:vp_y="0 : 1000 : 0"
       inkscape:vp_z="500 : 270 : 1"
       inkscape:persp3d-origin="250 : 180 : 1"
       id="perspective2524" />
    <inkscape:perspective
       id="perspective2533"
       inkscape:persp3d-origin="372.04724 : 350.78739 : 1"
       inkscape:vp_z="744.09448 : 526.18109 : 1"
       inkscape:vp_y="0 : 1000 : 0"
       inkscape:vp_x="0 : 526.18109 : 1"
       sodipodi:type="inkscape:persp3d" />
    <inkscape:perspective
       id="perspective3376"
       inkscape:persp3d-origin="372.04724 : 350.78739 : 1"
       inkscape:vp_z="744.09448 : 526.18109 : 1"
       inkscape:vp_y="0 : 1000 : 0"
       inkscape:vp_x="0 : 526.18109 : 1"
       sodipodi:type="inkscape:persp3d" />
    <inkscape:perspective
       id="perspective3425"
       inkscape:persp3d-origin="372.04724 : 350.78739 : 1"
       inkscape:vp_z="744.09448 : 526.18109 : 1"
       inkscape:vp_y="0 : 1000 : 0"
       inkscape:vp_x="0 : 526.18109 : 1"
       sodipodi:type="inkscape:persp3d" />
    <inkscape:perspective
       id="perspective4141"
       inkscape:persp3d-origin="372.04724 : 350.78739 : 1"
       inkscape:vp_z="744.09448 : 526.18109 : 1"
       inkscape:vp_y="0 : 1000 : 0"
       inkscape:vp_x="0 : 526.18109 : 1"
       sodipodi:type="inkscape:persp3d" />
    <inkscape:perspective
       id="perspective4160"
       inkscape:persp3d-origin="372.04724 : 350.78739 : 1"
       inkscape:vp_z="744.09448 : 526.18109 : 1"
       inkscape:vp_y="0 : 1000 : 0"
       inkscape:vp_x="0 : 526.18109 : 1"
       sodipodi:type="inkscape:persp3d" />
    <inkscape:perspective
       id="perspective4259"
       inkscape:persp3d-origin="372.04724 : 350.78739 : 1"
       inkscape:vp_z="744.09448 : 526.18109 : 1"
       inkscape:vp_y="0 : 1000 : 0"
       inkscape:vp_x="0 : 526.18109 : 1"
       sodipodi:type="inkscape:persp3d" />
    <inkscape:perspective
       id="perspective4330"
       inkscape:persp3d-origin="372.04724 : 350.78739 : 1"
       inkscape:vp_z="744.09448 : 526.18109 : 1"
       inkscape:vp_y="0 : 1000 : 0"
       inkscape:vp_x="0 : 526.18109 : 1"
       sodipodi:type="inkscape:persp3d" />
    <inkscape:perspective
       id="perspective4391"
       inkscape:persp3d-origin="372.04724 : 350.78739 : 1"
       inkscape:vp_z="744.09448 : 526.18109 : 1"
       inkscape:vp_y="0 : 1000 : 0"
       inkscape:vp_x="0 : 526.18109 : 1"
       sodipodi:type="inkscape:persp3d" />
    <inkscape:perspective
       id="perspective4468"
       inkscape:persp3d-origin="372.04724 : 350.78739 : 1"
       inkscape:vp_z="744.09448 : 526.18109 : 1"
       inkscape:vp_y="0 : 1000 : 0"
       inkscape:vp_x="0 : 526.18109 : 1"
       sodipodi:type="inkscape:persp3d" />
  </defs>
  <sodipodi:namedview
     id="base"
     pagecolor="#ffffff"
     bordercolor="#666666"
     borderopacity="1.0"
     gridtolerance="10000"
     guidetolerance="10"
     objecttolerance="10"
     inkscape:pageopacity="0.0"
     inkscape:pageshadow="2"
     inkscape:zoom="0.5"
     inkscape:cx="873.71818"
     inkscape:cy="411.5222"
     inkscape:document-units="px"
     inkscape:current-layer="layer1"
     width="500px"
     height="540px"
     units="px"
     showgrid="false"
     inkscape:object-paths="false"
     inkscape:grid-points="true"
     inkscape:grid-bbox="false"
     inkscape:guide-bbox="false"
     inkscape:window-width="1920"
     inkscape:window-height="1027"
     inkscape:window-x="1912"
     inkscape:window-y="-8"
     inkscape:pagecheckerboard="0"
     inkscape:window-maximized="1"
     showguides="false">
    <inkscape:grid
       id="GridFromPre046Settings"
       type="xygrid"
       originx="0"
       originy="5"
       spacingx="10"
       spacingy="10"
       color="#0000ff"
       empcolor="#0000ff"
       opacity="0.2"
       empopacity="0.4"
       empspacing="5"
       visible="true"
       enabled="true" />
  </sodipodi:namedview>
  <metadata
     id="metadata7">
    <rdf:RDF>
      <cc:Work
         rdf:about="">
        <dc:format>image/svg+xml</dc:format>
        <dc:type
           rdf:resource="http://purl.org/dc/dcmitype/StillImage" />
        <dc:title></dc:title>
      </cc:Work>
    </rdf:RDF>
  </metadata>
  <g
     inkscape:label="Layer 1"
     inkscape:groupmode="layer"
     id="layer1"
     transform="translate(-30.440842,-238.06165)">
    <path
       transform="translate(30.440842,238.06165)"
       id="path4474"
       d="M 671.30949,544.89942 V 264.44319 H 118.79394"
       style="fill:none;fill-rule:evenodd;stroke:#000000;stroke-width:2;stroke-linecap:butt;stroke-linejoin:miter;stroke-miterlimit:4;stroke-dasharray:8, 8;stroke-dashoffset:2.5999999;stroke-opacity:1"
       sodipodi:nodetypes="ccc"
       inkscape:connector-curvature="0" />
    <path
       style="fill:none;fill-rule:evenodd;stroke:#000000;stroke-width:2;stroke-linecap:butt;stroke-linejoin:miter;stroke-miterlimit:4;stroke-dasharray:8, 8;stroke-dashoffset:2.5999999;stroke-opacity:1"
       d="M 369.3749,544.89942 V 464.20086 H 118.79394"
       id="path4417"
       transform="translate(30.440842,238.06165)"
       inkscape:connector-curvature="0" />
    <path
       style="fill:#000000;fill-opacity:1;fill-rule:evenodd;stroke:none;stroke-width:1px;stroke-linecap:butt;stroke-linejoin:miter;stroke-opacity:1"
       d="m 144.43693,298.06165 5,-19.00391 5.00391,19.00391 z"
       id="path4397"
       inkscape:connector-curvature="0" />
    <path
       style="fill:none;fill-rule:evenodd;stroke:#000000;stroke-width:2;stroke-linecap:butt;stroke-linejoin:miter;stroke-miterlimit:4;stroke-dasharray:none;stroke-opacity:1"
       d="M 118.99609,57.038579 V 577.2561"
       id="path4399"
       transform="translate(30.440842,238.06165)"
       sodipodi:nodetypes="cc"
       inkscape:connector-curvature="0" />
    <path
       id="path4401"
       d="m 790.41635,778.06409 19.00391,5 -19.00391,5.00391 z"
       style="fill:#000000;fill-opacity:1;fill-rule:evenodd;stroke:none;stroke-width:1px;stroke-linecap:butt;stroke-linejoin:miter;stroke-opacity:1"
       inkscape:connector-curvature="0" />
    <path
       sodipodi:nodetypes="cc"
       id="path4403"
       d="M 793.37777,783.06409 H 113.66025"
       style="fill:none;fill-rule:evenodd;stroke:#000000;stroke-width:2;stroke-linecap:butt;stroke-linejoin:miter;stroke-miterlimit:4;stroke-dasharray:none;stroke-opacity:1"
       inkscape:connector-curvature="0" />
    <path
       style="fill:none;fill-rule:evenodd;stroke:#008f8f;stroke-width:3;stroke-linecap:butt;stroke-linejoin:miter;stroke-miterlimit:4;stroke-dasharray:none;stroke-opacity:1"
       d="m 170,519.5 c 0,0 133.7872,-31.12876 199.25072,-55.51944 C 672.5226,350.89306 754.12938,139.81562 754.12938,139.81562"
       id="path4413"
       transform="translate(30.440842,238.06165)"
       sodipodi:nodetypes="csc"
       inkscape:connector-curvature="0" />
    <path
       style="fill:none;fill-rule:evenodd;stroke:#8f008f;stroke-width:2;stroke-linecap:butt;stroke-linejoin:miter;stroke-miterlimit:4;stroke-dasharray:none;stroke-opacity:1"
       d="M 777.89065,452.08569 288.98288,775.79617"
       id="path4415"
       inkscape:transform-center-x="-133.70941"
       inkscape:transform-center-y="-88.321579"
       sodipodi:nodetypes="cc"
       inkscape:connector-curvature="0" />
    <text
       xml:space="preserve"
       style="font-style:italic;font-variant:normal;font-weight:normal;font-stretch:normal;line-height:0%;font-family:'Times New Roman';-inkscape-font-specification:'Times New Roman Italic';text-align:start;writing-mode:lr-tb;text-anchor:start;fill:#000000;fill-opacity:1;stroke:none;stroke-width:1px;stroke-linecap:butt;stroke-linejoin:miter;stroke-opacity:1"
       x="392.83307"
       y="808.85883"
       id="text4421"><tspan
         sodipodi:role="line"
         id="tspan4423"
         x="392.83307"
         y="808.85883"
         style="font-size:36px;line-height:1.25">x</tspan></text>
    <text
       xml:space="preserve"
       style="font-style:italic;font-variant:normal;font-weight:normal;font-stretch:normal;line-height:0%;font-family:'Times New Roman';-inkscape-font-specification:'Times New Roman Italic';text-align:start;writing-mode:lr-tb;text-anchor:start;fill:#000000;fill-opacity:1;stroke:none;stroke-width:1px;stroke-linecap:butt;stroke-linejoin:miter;stroke-opacity:1"
       x="87.271797"
       y="711.75964"
       id="text4476"><tspan
         sodipodi:role="line"
         id="tspan4478"
         x="87.271797"
         y="711.75964"
         style="font-size:36px;line-height:1.25">f(x)</tspan></text>
    <text
       id="text4480"
       y="513.73175"
       x="45.271797"
       style="font-style:italic;font-variant:normal;font-weight:normal;font-stretch:normal;line-height:0%;font-family:'Times New Roman';-inkscape-font-specification:'Times New Roman Italic';text-align:start;writing-mode:lr-tb;text-anchor:start;fill:#000000;fill-opacity:1;stroke:none;stroke-width:1px;stroke-linecap:butt;stroke-linejoin:miter;stroke-opacity:1"
       xml:space="preserve"><tspan
         y="513.73175"
         x="45.271797"
         id="tspan4482"
         sodipodi:role="line"
         style="font-size:36px;line-height:1.25">f(x+h)</tspan></text>
    <text
       id="text4484"
       y="812.39435"
       x="672.81226"
       style="font-style:italic;font-variant:normal;font-weight:normal;font-stretch:normal;line-height:0%;font-family:'Times New Roman';-inkscape-font-specification:'Times New Roman Italic';text-align:start;writing-mode:lr-tb;text-anchor:start;fill:#000000;fill-opacity:1;stroke:none;stroke-width:1px;stroke-linecap:butt;stroke-linejoin:miter;stroke-opacity:1"
       xml:space="preserve"><tspan
         y="812.39435"
         x="672.81226"
         id="tspan4486"
         sodipodi:role="line"
         style="font-size:36px;line-height:1.25">x+h</tspan></text>
    <path
       style="fill:none;stroke:#000000;stroke-width:1px;stroke-linecap:butt;stroke-linejoin:miter;stroke-opacity:1"
       d="m 326.81584,750.43665 c 11.01796,8.49077 9.48948,20.70358 4.75,31.625"
       id="path2020"
       inkscape:connector-curvature="0" />
    <path
       style="fill:none;stroke:#000000;stroke-width:1px;stroke-linecap:butt;stroke-linejoin:miter;stroke-opacity:1"
       d="m 320.47209,763.49915 c -0.12724,1.87416 -0.55945,3.79597 -1.3125,5.53125 -0.68526,1.57909 -6.24504,6.92015 -4.875,2.125 0.39354,-1.37737 6.7274,4.58916 11.40625,-0.3125"
       id="path2022"
       inkscape:connector-curvature="0" />
    <path
       style="fill:none;stroke:#000000;stroke-width:1px;stroke-linecap:butt;stroke-linejoin:miter;stroke-opacity:1"
       d="m 525.25455,736.23932 c -0.33561,3.29602 0.36585,6.70733 0,10 -2.38263,21.44367 -3.22997,12.34496 -1,9 5.63094,-8.44641 10.5,-1.34826 10.5,6"
       id="path2334"
       inkscape:connector-curvature="0" />
    <path
       style="fill:none;stroke:#000000;stroke-width:1px;stroke-linecap:butt;stroke-linejoin:miter;stroke-opacity:1"
       d="m 696.44084,702.56165 c 5.90082,1.78909 21.37363,2.06592 24,-4.5 1.74709,-4.36771 0.91606,-9.32851 1.5,-14 1.30031,-10.40249 3.20156,-20.61244 4.5,-31 2.10114,-16.8091 -2.5,-34.13647 -2.5,-51 0,-1.11591 14.5,0.49484 14.5,-2 0,-1.86735 -14.57651,-5.95905 -15.5,-11.5 -5.62355,-33.7413 12.28275,-72.2533 -27.19051,-83.55681"
       id="path2371"
       inkscape:connector-curvature="0" />
    <path
       style="fill:none;stroke:#000000;stroke-width:1;stroke-linecap:butt;stroke-linejoin:miter;stroke-miterlimit:4;stroke-dasharray:1, 12;stroke-dashoffset:0;stroke-opacity:1"
       d="m 409.44084,703.06165 287,-0.5"
       id="path2373"
       inkscape:connector-curvature="0" />
    <path
       style="fill:none;stroke:#000000;stroke-width:1px;stroke-linecap:butt;stroke-linejoin:miter;stroke-opacity:1"
       d="m 758.90531,583.41825 c -6.76943,7.40789 -10.20921,22.37235 -7,32"
       id="path2492"
       inkscape:connector-curvature="0" />
    <path
       style="fill:none;stroke:#000000;stroke-width:1px;stroke-linecap:butt;stroke-linejoin:miter;stroke-opacity:1"
       d="m 757.40531,598.66825 c 0.57664,3.96704 2.25,7.97308 2.25,12"
       id="path2494"
       inkscape:connector-curvature="0" />
    <path
       style="fill:none;stroke:#000000;stroke-width:1px;stroke-linecap:butt;stroke-linejoin:miter;stroke-opacity:1"
       d="m 755.65531,608.16825 c 2.06389,-3.57927 5.5436,-5.9748 8,-9.25"
       id="path2496"
       inkscape:connector-curvature="0" />
    <path
       style="fill:none;stroke:#000000;stroke-width:1px;stroke-linecap:butt;stroke-linejoin:miter;stroke-opacity:1"
       d="m 769.65531,600.66825 c -1.00597,3.28409 -2.2954,8.2839 -3,10.75"
       id="path2498"
       inkscape:connector-curvature="0" />
    <path
       style="fill:none;stroke:#000000;stroke-width:1px;stroke-linecap:butt;stroke-linejoin:miter;stroke-opacity:1"
       d="m 764.90531,607.66825 c 1.83333,0 3.66667,0 5.5,0"
       id="path2500"
       inkscape:connector-curvature="0" />
    <path
       style="fill:none;stroke:#000000;stroke-width:1px;stroke-linecap:butt;stroke-linejoin:miter;stroke-opacity:1"
       d="m 779.90531,588.16825 c -0.79091,10.01668 -7.5,19.7152 -7.5,29.75 0,1.20098 4.44596,-12.55404 6.75,-10.25 2.63327,2.63327 2.25,10.03759 2.25,13.5"
       id="path2502"
       inkscape:connector-curvature="0" />
    <path
       style="fill:none;stroke:#000000;stroke-width:1px;stroke-linecap:butt;stroke-linejoin:miter;stroke-opacity:1"
       d="m 787.40531,582.16825 c 7.36562,17.4288 4.67123,30.35047 -2.25,46.5"
       id="path2504"
       inkscape:connector-curvature="0" />
    <path
       style="fill:none;stroke:#000000;stroke-width:1px;stroke-linecap:butt;stroke-linejoin:miter;stroke-opacity:1"
       d="m 795.74109,610.27701 c 1.61222,-0.10404 7.6604,0.47629 9.16942,0.85355"
       id="path2506"
       sodipodi:nodetypes="cc"
       inkscape:connector-curvature="0" />
    <path
       style="fill:none;stroke:#000000;stroke-width:1px;stroke-linecap:butt;stroke-linejoin:miter;stroke-opacity:1"
       d="m 813.67828,626.0647 c -3.36176,0.89271 -3.89855,-43.39855 4.25,-35.25"
       id="path2508"
       inkscape:connector-curvature="0" />
    <path
       style="fill:none;stroke:#000000;stroke-width:1px;stroke-linecap:butt;stroke-linejoin:miter;stroke-opacity:1"
       d="m 807.17828,611.8147 c 1.91667,0 3.83333,0 5.75,0"
       id="path2510"
       inkscape:connector-curvature="0" />
    <path
       style="fill:none;stroke:#000000;stroke-width:1px;stroke-linecap:butt;stroke-linejoin:miter;stroke-opacity:1"
       d="m 828.67828,587.8147 c -7.66389,11.76589 -10.66694,28.16611 -4.25,41"
       id="path2512"
       inkscape:connector-curvature="0" />
    <path
       style="fill:none;stroke:#000000;stroke-width:1px;stroke-linecap:butt;stroke-linejoin:miter;stroke-opacity:1"
       d="m 828.42828,611.0647 c 2.43664,3.56432 5.27425,8.0485 7,11.5"
       id="path2514"
       inkscape:connector-curvature="0" />
    <path
       style="fill:none;stroke:#000000;stroke-width:1px;stroke-linecap:butt;stroke-linejoin:miter;stroke-opacity:1"
       d="m 837.92828,611.8147 c -4.82706,2.36058 -10.96774,5.66935 -13,10.75"
       id="path2516"
       inkscape:connector-curvature="0" />
    <path
       style="fill:none;stroke:#000000;stroke-width:1px;stroke-linecap:butt;stroke-linejoin:miter;stroke-opacity:1"
       d="m 841.67828,587.8147 c 3.64918,8.28222 9.30458,33.94542 2.25,41"
       id="path2518"
       inkscape:connector-curvature="0" />
    <path
       style="fill:none;stroke:#000000;stroke-width:1px;stroke-linecap:butt;stroke-linejoin:miter;stroke-opacity:1"
       d="m 741.96704,613.8889 c 2.74287,-8.87786 1.42384,-19.46468 5.65686,-27.93071 1.52869,-3.0574 2.82843,4.11566 2.82843,5.48007"
       id="path2873"
       inkscape:connector-curvature="0" />
    <path
       style="fill:none;stroke:#000000;stroke-width:1px;stroke-linecap:butt;stroke-linejoin:miter;stroke-opacity:1"
       d="m 742.14382,600.80743 c 1.28616,0.33514 2.61875,0.34885 3.88909,0.53033"
       id="path2875"
       inkscape:connector-curvature="0" />
    <path
       style="fill:none;stroke:#000000;stroke-width:1px;stroke-linecap:butt;stroke-linejoin:miter;stroke-opacity:1"
       d="m 399.81574,702.26251 c 5.36475,4.69507 1.25523,17.7455 7.51301,20.87439 12.11008,6.05504 60.26067,0.70711 74.24622,0.70711 11.78511,0 23.57022,0 35.35534,0 5.28531,0 8.15075,8.65254 8.48528,8.48528 4.82188,-2.41094 6.58221,-5.168 9.89949,-8.48528 1.39681,-1.39681 8.14183,0.51181 9.8995,0.70711 37.1684,4.12982 74.8742,-2.82843 111.72287,-2.82843 16.23829,0 29.01693,3.48442 36.06244,-10.6066"
       id="path3378"
       inkscape:connector-curvature="0" />
    <g
       id="page1"
       transform="matrix(3.3787735,0,0,3.3787735,808.89786,72.40963)">
      <path
         inkscape:connector-curvature="0"
         d="m 58.421733,66.046414 h 1.685679 v -0.3467 h -1.685679 v -2.19975 H 58.15872 c -0.01196,1.12379 -0.442342,2.27148 -1.530262,2.30735 v 0.2391 h 1.016189 v 3.32354 c 0,1.32702 0.884683,1.60199 1.518307,1.60199 0.753175,0 1.147696,-0.74122 1.147696,-1.60199 v -0.68145 h -0.263014 v 0.65754 c 0,0.86077 -0.3467,1.36289 -0.812951,1.36289 -0.812952,0 -0.812952,-1.11183 -0.812952,-1.31507 z"
         id="use23" />
      <path
         inkscape:connector-curvature="0"
         d="m 65.580286,67.660364 c 0,-0.64558 0,-1.12379 -0.526028,-1.59004 -0.41843,-0.38256 -0.956413,-0.54994 -1.48244,-0.54994 -0.980324,0 -1.7335,0.64558 -1.7335,1.42267 0,0.3467 0.227148,0.51407 0.502117,0.51407 0.286924,0 0.490162,-0.20324 0.490162,-0.49016 0,-0.49016 -0.430386,-0.49016 -0.609713,-0.49016 0.274969,-0.50212 0.848817,-0.71731 1.327023,-0.71731 0.549938,0 1.255293,0.45429 1.255293,1.53026 v 0.47821 c -2.402989,0.0359 -3.311582,1.0401 -3.311582,1.96064 0,0.94446 1.099876,1.24334 1.829141,1.24334 0.789041,0 1.327024,-0.47821 1.554172,-1.05205 0.04782,0.56189 0.418431,0.99228 0.932503,0.99228 0.251059,0 0.944458,-0.16738 0.944458,-1.12379 v -0.66949 h -0.263013 v 0.66949 c 0,0.68144 -0.286924,0.77709 -0.454297,0.77709 -0.454296,0 -0.454296,-0.63363 -0.454296,-0.81296 z m -0.777086,1.50635 c 0,1.17161 -0.872727,1.56613 -1.3868,1.56613 -0.585803,0 -1.075965,-0.43039 -1.075965,-1.00424 0,-1.57808 2.032379,-1.72154 2.462765,-1.74545 z"
         id="use25" />
      <path
         inkscape:connector-curvature="0"
         d="m 72.138631,67.947284 c 0,-1.11183 0,-1.44657 -0.274969,-1.82914 -0.3467,-0.46625 -0.908593,-0.53798 -1.315069,-0.53798 -1.159651,0 -1.613947,0.99228 -1.709589,1.23138 h -0.01196 v -1.23138 l -1.625903,0.13151 v 0.3467 c 0.812952,0 0.908593,0.0837 0.908593,0.66949 v 3.23985 c 0,0.53798 -0.131507,0.53798 -0.908593,0.53798 v 0.3467 c 0.310835,-0.0239 0.956414,-0.0239 1.291159,-0.0239 0.346699,0 0.992278,0 1.303113,0.0239 v -0.3467 c -0.765131,0 -0.908593,0 -0.908593,-0.53798 v -2.22366 c 0,-1.2553 0.824907,-1.92479 1.566127,-1.92479 0.74122,0 0.908593,0.60972 0.908593,1.33898 v 2.80947 c 0,0.53798 -0.131507,0.53798 -0.908593,0.53798 v 0.3467 c 0.310834,-0.0239 0.956414,-0.0239 1.291158,-0.0239 0.3467,0 0.992279,0 1.303114,0.0239 v -0.3467 c -0.597759,0 -0.896638,0 -0.908593,-0.35866 z"
         id="use27" />
      <path
         inkscape:connector-curvature="0"
         d="m 79.19983,73.757504 c 0,-0.0359 0,-0.0598 -0.203238,-0.26302 -1.195517,-1.20747 -1.865006,-3.18007 -1.865006,-5.61893 0,-2.3193 0.561892,-4.31581 1.948692,-5.72652 0.119552,-0.1076 0.119552,-0.13151 0.119552,-0.16738 0,-0.0717 -0.05978,-0.0956 -0.107597,-0.0956 -0.155417,0 -1.135741,0.86078 -1.721544,2.03238 -0.609714,1.20747 -0.884683,2.48668 -0.884683,3.95716 0,1.06401 0.167373,2.48668 0.789042,3.76588 0.705354,1.43462 1.685678,2.21171 1.817185,2.21171 0.04782,0 0.107597,-0.0239 0.107597,-0.0956 z"
         id="use29" />
      <path
         inkscape:connector-curvature="0"
         d="m 85.401973,67.827734 c 0,-1.15965 -0.657534,-2.24757 -1.924782,-2.24757 -1.566127,0 -3.132254,1.70959 -3.132254,3.40722 0,1.0401 0.645579,1.98456 1.865006,1.98456 0.74122,0 1.625903,-0.28692 2.47472,-1.00423 0.167372,0.66949 0.537982,1.00423 1.052055,1.00423 0.645579,0 0.968368,-0.66949 0.968368,-0.82491 0,-0.10759 -0.08369,-0.10759 -0.119552,-0.10759 -0.09564,0 -0.107596,0.0359 -0.143462,0.1315 -0.107596,0.29888 -0.382565,0.5619 -0.669489,0.5619 -0.37061,0 -0.37061,-0.76513 -0.37061,-1.4944 1.219427,-1.45853 1.506351,-2.96488 1.506351,-2.97684 0,-0.10759 -0.09564,-0.10759 -0.131507,-0.10759 -0.107596,0 -0.119552,0.0359 -0.167372,0.25106 -0.155417,0.52602 -0.466252,1.45853 -1.207472,2.43885 z m -0.753176,1.85305 c -1.052055,0.94446 -1.996513,1.05206 -2.414944,1.05206 -0.848817,0 -1.08792,-0.75318 -1.08792,-1.31507 0,-0.51407 0.263014,-1.7335 0.633624,-2.39103 0.490162,-0.83687 1.159651,-1.20748 1.697634,-1.20748 1.159651,0 1.159651,1.51831 1.159651,2.52254 0,0.29888 -0.01196,0.60972 -0.01196,0.9086 0,0.2391 0.01196,0.29888 0.02391,0.43038 z"
         id="use31" />
      <path
         inkscape:connector-curvature="0"
         d="m 90.759808,67.875554 c 0,-0.90859 -0.119551,-2.39103 -0.789041,-3.77783 -0.705355,-1.43462 -1.685678,-2.21171 -1.817185,-2.21171 -0.04782,0 -0.107597,0.0239 -0.107597,0.0956 0,0.0359 0,0.0598 0.203238,0.26302 1.195517,1.20747 1.865006,3.18007 1.865006,5.61893 0,2.3193 -0.561893,4.31581 -1.948692,5.72652 -0.119552,0.1076 -0.119552,0.13151 -0.119552,0.16738 0,0.0717 0.05978,0.0956 0.107597,0.0956 0.155417,0 1.135741,-0.86078 1.721544,-2.03238 0.609714,-1.21943 0.884682,-2.51059 0.884682,-3.94521 z"
         id="use33" />
      <path
         inkscape:connector-curvature="0"
         d="m 103.33134,66.978924 c 0.16738,0 0.38257,0 0.38257,-0.2152 0,-0.22715 -0.20324,-0.22715 -0.38257,-0.22715 h -7.041592 c -0.167372,0 -0.382565,0 -0.382565,0.2152 0,0.22715 0.203238,0.22715 0.382565,0.22715 z m 0,2.22366 c 0.16738,0 0.38257,0 0.38257,-0.2152 0,-0.22714 -0.20324,-0.22714 -0.38257,-0.22714 h -7.041592 c -0.167372,0 -0.382565,0 -0.382565,0.21519 0,0.22715 0.203238,0.22715 0.382565,0.22715 z"
         id="use35" />
      <path
         inkscape:connector-curvature="0"
         d="m 113.01909,66.046414 c 0.23911,0 0.33475,0 0.33475,-0.22715 0,-0.11955 -0.0956,-0.11955 -0.31084,-0.11955 h -0.96836 c 0.22714,-1.23138 0.39452,-2.0802 0.49016,-2.46276 0.0717,-0.28693 0.32279,-0.5619 0.63362,-0.5619 0.25106,0 0.50212,0.1076 0.62167,0.2152 -0.46625,0.0478 -0.60971,0.39452 -0.60971,0.59776 0,0.2391 0.17932,0.38256 0.40647,0.38256 0.23911,0 0.59776,-0.20324 0.59776,-0.65753 0,-0.50212 -0.50212,-0.77709 -1.02814,-0.77709 -0.51408,0 -1.01619,0.38257 -1.2553,0.84882 -0.21519,0.41843 -0.33474,0.84882 -0.60971,2.41494 h -0.801 c -0.22714,0 -0.3467,0 -0.3467,0.2152 0,0.1315 0.0717,0.1315 0.31084,0.1315 h 0.76513 c -0.21519,1.11183 -0.70536,3.8137 -0.98033,5.0929 -0.20323,1.0401 -0.38256,1.91283 -0.98032,1.91283 -0.0359,0 -0.38256,0 -0.59776,-0.22715 0.60972,-0.0478 0.60972,-0.57385 0.60972,-0.5858 0,-0.2391 -0.17933,-0.38257 -0.40648,-0.38257 -0.2391,0 -0.59776,0.20324 -0.59776,0.65754 0,0.51407 0.52603,0.77708 0.99228,0.77708 1.21943,0 1.72155,-2.18779 1.85305,-2.78555 0.2152,-0.92055 0.801,-4.10062 0.86077,-4.45928 z"
         id="use37" />
      <path
         inkscape:connector-curvature="0"
         d="m 116.8456,62.138376 c 0.0399,-0.10362 0.0717,-0.15941 0.0717,-0.23911 0,-0.26301 -0.2391,-0.43835 -0.46227,-0.43835 -0.3188,0 -0.40647,0.27895 -0.43835,0.39053 l -1.01221,3.43512 c -0.0319,0.0956 -0.0319,0.11955 -0.0319,0.12752 0,0.0717 0.0478,0.0877 0.12753,0.11158 0.14346,0.0638 0.1594,0.0638 0.17534,0.0638 0.0239,0 0.0717,0 0.12752,-0.13549 z"
         id="use39" />
      <path
         inkscape:connector-curvature="0"
         d="m 121.41402,73.757504 c 0,-0.0359 0,-0.0598 -0.20324,-0.26302 -1.19552,-1.20747 -1.86501,-3.18007 -1.86501,-5.61893 0,-2.3193 0.5619,-4.31581 1.9487,-5.72652 0.11955,-0.1076 0.11955,-0.13151 0.11955,-0.16738 0,-0.0717 -0.0598,-0.0956 -0.1076,-0.0956 -0.15542,0 -1.13574,0.86078 -1.72154,2.03238 -0.60972,1.20747 -0.88469,2.48668 -0.88469,3.95716 0,1.06401 0.16738,2.48668 0.78905,3.76588 0.70535,1.43462 1.68567,2.21171 1.81718,2.21171 0.0478,0 0.1076,-0.0239 0.1076,-0.0956 z"
         id="use41" />
      <path
         inkscape:connector-curvature="0"
         d="m 127.74767,65.974684 c -0.38257,0.0717 -0.52603,0.35866 -0.52603,0.58581 0,0.28692 0.22715,0.38256 0.39452,0.38256 0.35866,0 0.60971,-0.31083 0.60971,-0.63362 0,-0.50212 -0.57384,-0.72927 -1.07596,-0.72927 -0.72927,0 -1.13574,0.71731 -1.24334,0.94446 -0.27497,-0.89664 -1.01619,-0.94446 -1.23138,-0.94446 -1.21943,0 -1.86501,1.56613 -1.86501,1.82914 0,0.0478 0.0478,0.1076 0.13151,0.1076 0.0956,0 0.11955,-0.0717 0.14346,-0.11955 0.40648,-1.32703 1.20747,-1.57809 1.55417,-1.57809 0.53799,0 0.64558,0.50212 0.64558,0.78904 0,0.26302 -0.0717,0.53799 -0.21519,1.11184 l -0.40648,1.63785 c -0.17932,0.71731 -0.52602,1.37485 -1.15965,1.37485 -0.0598,0 -0.35865,0 -0.60971,-0.15542 0.43038,-0.0837 0.52603,-0.44234 0.52603,-0.5858 0,-0.23911 -0.17933,-0.38257 -0.40648,-0.38257 -0.28692,0 -0.59776,0.25106 -0.59776,0.63363 0,0.50211 0.5619,0.72926 1.07597,0.72926 0.57385,0 0.98032,-0.4543 1.23138,-0.94446 0.19128,0.70536 0.78904,0.94446 1.23138,0.94446 1.21943,0 1.86501,-1.56613 1.86501,-1.82914 0,-0.0598 -0.0478,-0.1076 -0.11955,-0.1076 -0.1076,0 -0.11956,0.0598 -0.15542,0.15542 -0.32279,1.05206 -1.01619,1.54222 -1.55417,1.54222 -0.41843,0 -0.64558,-0.31084 -0.64558,-0.801 0,-0.26301 0.0478,-0.45429 0.2391,-1.24334 l 0.41843,-1.6259 c 0.17933,-0.71731 0.58581,-1.24334 1.13574,-1.24334 0.0239,0 0.35866,0 0.60972,0.15542 z"
         id="use43" />
      <path
         inkscape:connector-curvature="0"
         d="m 132.10437,67.875554 c 0,-0.90859 -0.11955,-2.39103 -0.78904,-3.77783 -0.70535,-1.43462 -1.68568,-2.21171 -1.81718,-2.21171 -0.0478,0 -0.1076,0.0239 -0.1076,0.0956 0,0.0359 0,0.0598 0.20324,0.26302 1.19552,1.20747 1.865,3.18007 1.865,5.61893 0,2.3193 -0.56189,4.31581 -1.94869,5.72652 -0.11955,0.1076 -0.11955,0.13151 -0.11955,0.16738 0,0.0717 0.0598,0.0956 0.1076,0.0956 0.15541,0 1.13574,-0.86078 1.72154,-2.03238 0.60972,-1.21943 0.88468,-2.51059 0.88468,-3.94521 z"
         id="use45" />
      <path
         inkscape:connector-curvature="0"
         d="m 144.67591,66.978924 c 0.16737,0 0.38256,0 0.38256,-0.2152 0,-0.22715 -0.20323,-0.22715 -0.38256,-0.22715 h -7.0416 c -0.16737,0 -0.38256,0 -0.38256,0.2152 0,0.22715 0.20324,0.22715 0.38256,0.22715 z m 0,2.22366 c 0.16737,0 0.38256,0 0.38256,-0.2152 0,-0.22714 -0.20323,-0.22714 -0.38256,-0.22714 h -7.0416 c -0.16737,0 -0.38256,0 -0.38256,0.21519 0,0.22715 0.20324,0.22715 0.38256,0.22715 z"
         id="use47" />
      <path
         inkscape:connector-curvature="0"
         d="m 151.75001,62.555504 -1.66176,0.13151 v 0.3467 c 0.81295,0 0.90859,0.0837 0.90859,0.66949 v 6.26451 c 0,0.53798 -0.13151,0.53798 -0.90859,0.53798 v 0.3467 c 0.33474,-0.0239 0.92054,-0.0239 1.2792,-0.0239 0.35866,0 0.95641,0 1.29116,0.0239 v -0.3467 c -0.76513,0 -0.9086,0 -0.9086,-0.53798 z"
         id="use49" />
      <path
         inkscape:connector-curvature="0"
         d="m 155.02559,63.488014 c 0,-0.31084 -0.25106,-0.58581 -0.58581,-0.58581 -0.31083,0 -0.57384,0.25106 -0.57384,0.57385 0,0.35866 0.28692,0.5858 0.57384,0.5858 0.37061,0 0.58581,-0.31083 0.58581,-0.57384 z m -1.64982,2.22366 v 0.3467 c 0.76514,0 0.87273,0.0717 0.87273,0.65753 v 3.25181 c 0,0.53798 -0.13151,0.53798 -0.90859,0.53798 v 0.3467 c 0.33474,-0.0239 0.90859,-0.0239 1.25529,-0.0239 0.13151,0 0.82491,0 1.23138,0.0239 v -0.3467 c -0.77708,0 -0.8249,-0.0598 -0.8249,-0.52603 v -4.3995 z"
         id="use51" />
      <path
         inkscape:connector-curvature="0"
         d="m 164.76891,67.947284 c 0,-1.11183 0,-1.44657 -0.27497,-1.82914 -0.3467,-0.46625 -0.90859,-0.53798 -1.31507,-0.53798 -0.99228,0 -1.4944,0.71731 -1.68568,1.18356 -0.16737,-0.92055 -0.81295,-1.18356 -1.56613,-1.18356 -1.15965,0 -1.61394,0.99228 -1.70958,1.23138 h -0.012 v -1.23138 l -1.62591,0.13151 v 0.3467 c 0.81295,0 0.9086,0.0837 0.9086,0.66949 v 3.23985 c 0,0.53798 -0.13151,0.53798 -0.9086,0.53798 v 0.3467 c 0.31084,-0.0239 0.95642,-0.0239 1.29116,-0.0239 0.3467,0 0.99228,0 1.30311,0.0239 v -0.3467 c -0.76513,0 -0.90859,0 -0.90859,-0.53798 v -2.22366 c 0,-1.2553 0.82491,-1.92479 1.56613,-1.92479 0.74122,0 0.90859,0.60972 0.90859,1.33898 v 2.80947 c 0,0.53798 -0.13151,0.53798 -0.90859,0.53798 v 0.3467 c 0.31083,-0.0239 0.95641,-0.0239 1.29116,-0.0239 0.3467,0 0.99228,0 1.30311,0.0239 v -0.3467 c -0.76513,0 -0.90859,0 -0.90859,-0.53798 v -2.22366 c 0,-1.2553 0.8249,-1.92479 1.56612,-1.92479 0.74123,0 0.9086,0.60972 0.9086,1.33898 v 2.80947 c 0,0.53798 -0.13151,0.53798 -0.9086,0.53798 v 0.3467 c 0.31084,-0.0239 0.95642,-0.0239 1.29116,-0.0239 0.3467,0 0.99228,0 1.30312,0.0239 v -0.3467 c -0.59776,0 -0.89664,0 -0.9086,-0.35866 z"
         id="use53" />
      <path
         inkscape:connector-curvature="0"
         d="m 151.35892,73.087573 c 0.008,-0.016 0.0319,-0.11956 0.0319,-0.12753 0,-0.0398 -0.0319,-0.11158 -0.12752,-0.11158 -0.0319,0 -0.27896,0.0239 -0.46227,0.0399 l -0.44632,0.0319 c -0.17535,0.0159 -0.25505,0.0239 -0.25505,0.16738 0,0.11158 0.11158,0.11158 0.20722,0.11158 0.38257,0 0.38257,0.0478 0.38257,0.11955 0,0.0239 0,0.0399 -0.0399,0.18331 l -1.13176,4.53499 c -0.0319,0.11956 -0.0319,0.16738 -0.0319,0.17535 0,0.13549 0.11159,0.24707 0.26302,0.24707 0.12752,0 0.2391,-0.0797 0.30286,-0.18331 0.0239,-0.0478 0.0877,-0.30287 0.12752,-0.46227 l 0.18332,-0.70934 c 0.0239,-0.11955 0.10361,-0.42241 0.12752,-0.54197 0.11955,-0.46226 0.11955,-0.4782 0.29489,-0.73325 0.27099,-0.39053 0.64558,-0.74122 1.17958,-0.74122 0.28692,0 0.4543,0.16738 0.4543,0.54197 0,0.43836 -0.33475,1.34695 -0.48618,1.73749 -0.10361,0.26301 -0.10361,0.31083 -0.10361,0.41444 0,0.4543 0.37459,0.67746 0.71731,0.67746 0.78107,0 1.10784,-1.11582 1.10784,-1.21943 0,-0.0797 -0.0638,-0.10361 -0.11955,-0.10361 -0.0956,0 -0.11158,0.0558 -0.13549,0.13549 -0.19128,0.65355 -0.52603,0.96439 -0.82889,0.96439 -0.12752,0 -0.19129,-0.0797 -0.19129,-0.26302 0,-0.18331 0.0638,-0.35865 0.14347,-0.5579 0.11955,-0.30287 0.47023,-1.21943 0.47023,-1.66576 0,-0.59776 -0.41444,-0.88468 -0.98829,-0.88468 -0.44633,0 -0.86874,0.19128 -1.23537,0.6137 z"
         id="use55" />
      <path
         inkscape:connector-curvature="0"
         d="m 160.86947,76.570503 c -0.27099,0.19926 -0.51806,0.4543 -0.70934,0.74122 -0.34272,0.51806 -0.43039,1.02815 -0.43039,1.06003 0,0.11955 0.11158,0.11955 0.18331,0.11955 0.0877,0 0.15941,0 0.18332,-0.10361 0.20722,-0.88468 0.71731,-1.55417 1.68169,-1.88095 0.0638,-0.0159 0.12752,-0.0399 0.12752,-0.11955 0,-0.0797 -0.0717,-0.10361 -0.10361,-0.11158 -1.06002,-0.35866 -1.52229,-1.10785 -1.68966,-1.80922 -0.0399,-0.1594 -0.0399,-0.18331 -0.19926,-0.18331 -0.0717,0 -0.18331,0 -0.18331,0.11955 0,0.0159 0.0797,0.54197 0.43039,1.068 0.23113,0.33474 0.51009,0.58182 0.70934,0.73325 h -6.18481 c -0.12752,0 -0.30286,0 -0.30286,0.18331 0,0.18331 0.17534,0.18331 0.30286,0.18331 z"
         id="use57" />
      <path
         inkscape:connector-curvature="0"
         d="m 166.27731,75.837253 c 0,-0.8528 -0.0877,-1.37086 -0.35068,-1.88094 -0.35069,-0.70137 -0.99627,-0.87672 -1.43462,-0.87672 -1.00424,0 -1.37086,0.7492 -1.48244,0.97236 -0.28693,0.58182 -0.30287,1.37086 -0.30287,1.7853 0,0.52603 0.0239,1.33101 0.40648,1.96862 0.36662,0.58979 0.95641,0.74122 1.37883,0.74122 0.38256,0 1.06799,-0.11955 1.4665,-0.90859 0.29489,-0.57385 0.3188,-1.28319 0.3188,-1.80125 z m -1.7853,2.48668 c -0.27099,0 -0.82092,-0.12752 -0.9883,-0.96438 -0.0877,-0.4543 -0.0877,-1.20349 -0.0877,-1.61794 0,-0.54994 0,-1.10784 0.0877,-1.5462 0.16738,-0.81295 0.78905,-0.89265 0.9883,-0.89265 0.27098,0 0.82092,0.13549 0.98032,0.86077 0.0956,0.43836 0.0956,1.03611 0.0956,1.57808 0,0.47024 0,1.18755 -0.0956,1.63388 -0.16737,0.83686 -0.71731,0.94844 -0.98032,0.94844 z"
         id="use59" />
      <path
         inkscape:connector-curvature="0"
         d="m 175.13411,57.958653 c 0.23911,0 0.33475,0 0.33475,-0.22715 0,-0.11955 -0.0956,-0.11955 -0.31084,-0.11955 h -0.96836 c 0.22714,-1.23138 0.39452,-2.0802 0.49016,-2.46276 0.0717,-0.28693 0.32279,-0.5619 0.63362,-0.5619 0.25106,0 0.50212,0.1076 0.62167,0.2152 -0.46625,0.0478 -0.60971,0.39452 -0.60971,0.59776 0,0.2391 0.17932,0.38256 0.40647,0.38256 0.23911,0 0.59776,-0.20324 0.59776,-0.65753 0,-0.50212 -0.50212,-0.77709 -1.02814,-0.77709 -0.51408,0 -1.01619,0.38257 -1.2553,0.84882 -0.21519,0.41843 -0.33474,0.84882 -0.60971,2.41494 h -0.801 c -0.22714,0 -0.3467,0 -0.3467,0.2152 0,0.1315 0.0717,0.1315 0.31084,0.1315 h 0.76513 c -0.21519,1.11183 -0.70536,3.8137 -0.98033,5.0929 -0.20323,1.0401 -0.38256,1.91283 -0.98032,1.91283 -0.0359,0 -0.38256,0 -0.59776,-0.22715 0.60972,-0.0478 0.60972,-0.57385 0.60972,-0.5858 0,-0.2391 -0.17933,-0.38257 -0.40648,-0.38257 -0.2391,0 -0.59776,0.20324 -0.59776,0.65754 0,0.51407 0.52603,0.77708 0.99228,0.77708 1.21943,0 1.72155,-2.18779 1.85305,-2.78555 0.2152,-0.92055 0.801,-4.10062 0.86077,-4.45928 z"
         id="use61" />
      <path
         inkscape:connector-curvature="0"
         d="m 180.73399,65.669743 c 0,-0.0359 0,-0.0598 -0.20324,-0.26302 -1.19552,-1.20747 -1.86501,-3.18007 -1.86501,-5.61893 0,-2.3193 0.56189,-4.31581 1.94869,-5.72652 0.11956,-0.1076 0.11956,-0.13151 0.11956,-0.16738 0,-0.0717 -0.0598,-0.0956 -0.1076,-0.0956 -0.15542,0 -1.13574,0.86078 -1.72154,2.03238 -0.60972,1.20747 -0.88469,2.48668 -0.88469,3.95716 0,1.06401 0.16738,2.48668 0.78904,3.76588 0.70536,1.43462 1.68568,2.21171 1.81719,2.21171 0.0478,0 0.1076,-0.0239 0.1076,-0.0956 z"
         id="use63" />
      <path
         inkscape:connector-curvature="0"
         d="m 187.06763,57.886923 c -0.38257,0.0717 -0.52603,0.35866 -0.52603,0.58581 0,0.28692 0.22715,0.38256 0.39452,0.38256 0.35866,0 0.60971,-0.31083 0.60971,-0.63362 0,-0.50212 -0.57384,-0.72927 -1.07596,-0.72927 -0.72927,0 -1.13574,0.71731 -1.24334,0.94446 -0.27497,-0.89664 -1.01619,-0.94446 -1.23138,-0.94446 -1.21943,0 -1.86501,1.56613 -1.86501,1.82914 0,0.0478 0.0478,0.1076 0.13151,0.1076 0.0956,0 0.11955,-0.0717 0.14346,-0.11955 0.40648,-1.32703 1.20747,-1.57809 1.55417,-1.57809 0.53799,0 0.64558,0.50212 0.64558,0.78904 0,0.26302 -0.0717,0.53799 -0.21519,1.11184 l -0.40648,1.63785 c -0.17932,0.71731 -0.52602,1.37485 -1.15965,1.37485 -0.0598,0 -0.35865,0 -0.60971,-0.15542 0.43039,-0.0837 0.52603,-0.44234 0.52603,-0.5858 0,-0.23911 -0.17933,-0.38257 -0.40648,-0.38257 -0.28692,0 -0.59776,0.25106 -0.59776,0.63363 0,0.50211 0.5619,0.72926 1.07597,0.72926 0.57385,0 0.98032,-0.4543 1.23138,-0.94446 0.19128,0.70536 0.78904,0.94446 1.23138,0.94446 1.21943,0 1.86501,-1.56613 1.86501,-1.82914 0,-0.0598 -0.0478,-0.1076 -0.11955,-0.1076 -0.1076,0 -0.11955,0.0598 -0.15542,0.15542 -0.32279,1.05206 -1.01619,1.54222 -1.55417,1.54222 -0.41843,0 -0.64558,-0.31084 -0.64558,-0.801 0,-0.26301 0.0478,-0.45429 0.2391,-1.24334 l 0.41843,-1.6259 c 0.17933,-0.71731 0.58581,-1.24334 1.13574,-1.24334 0.0239,0 0.35866,0 0.60972,0.15542 z"
         id="use65" />
      <path
         inkscape:connector-curvature="0"
         d="m 195.47974,60.002993 h 3.29962 c 0.16738,0 0.38257,0 0.38257,-0.2152 0,-0.22715 -0.20324,-0.22715 -0.38257,-0.22715 h -3.29962 v -3.29962 c 0,-0.16737 0,-0.38257 -0.2152,-0.38257 -0.22714,0 -0.22714,0.20324 -0.22714,0.38257 v 3.29962 h -3.29963 c -0.16737,0 -0.38257,0 -0.38257,0.2152 0,0.22715 0.20324,0.22715 0.38257,0.22715 h 3.29963 v 3.29962 c 0,0.16737 0,0.38257 0.21519,0.38257 0.22715,0 0.22715,-0.20324 0.22715,-0.38257 z"
         id="use67" />
      <path
         inkscape:connector-curvature="0"
         d="m 205.83035,54.766623 c 0.012,-0.0478 0.0359,-0.11955 0.0359,-0.17933 0,-0.11955 -0.11955,-0.11955 -0.14346,-0.11955 -0.012,0 -0.59776,0.0478 -0.65754,0.0598 -0.20323,0.0119 -0.38256,0.0359 -0.59776,0.0478 -0.29887,0.0239 -0.38256,0.0359 -0.38256,0.25106 0,0.11955 0.0956,0.11955 0.26301,0.11955 0.58581,0 0.59776,0.1076 0.59776,0.22715 0,0.0717 -0.0239,0.16737 -0.0359,0.20324 l -1.7335,6.92204 c -0.0478,0.17933 -0.0478,0.20324 -0.0478,0.27497 0,0.26301 0.20324,0.31083 0.32279,0.31083 0.20324,0 0.35866,-0.15542 0.41843,-0.28692 l 0.53799,-2.16389 c 0.0598,-0.26301 0.1315,-0.51407 0.19128,-0.77708 0.13151,-0.50212 0.13151,-0.51408 0.35865,-0.86078 0.22715,-0.3467 0.76513,-1.06401 1.68568,-1.06401 0.47821,0 0.64558,0.35866 0.64558,0.83687 0,0.66948 -0.46625,1.9726 -0.72926,2.68991 -0.1076,0.28692 -0.16738,0.44234 -0.16738,0.65753 0,0.53799 0.37061,0.96837 0.94446,0.96837 1.11183,0 1.53026,-1.75741 1.53026,-1.82914 0,-0.0598 -0.0478,-0.1076 -0.11955,-0.1076 -0.10759,0 -0.11955,0.0359 -0.17933,0.23911 -0.27496,0.95641 -0.71731,1.45853 -1.19551,1.45853 -0.11955,0 -0.31084,-0.012 -0.31084,-0.39452 0,-0.31084 0.14347,-0.6934 0.19129,-0.82491 0.21519,-0.57385 0.75317,-1.98456 0.75317,-2.67796 0,-0.71731 -0.41843,-1.25529 -1.32702,-1.25529 -0.68145,0 -1.27921,0.32279 -1.76937,0.94446 z"
         id="use69" />
      <path
         inkscape:connector-curvature="0"
         d="m 212.58086,59.787793 c 0,-0.90859 -0.11955,-2.39103 -0.78904,-3.77783 -0.70536,-1.43462 -1.68568,-2.21171 -1.81719,-2.21171 -0.0478,0 -0.10759,0.0239 -0.10759,0.0956 0,0.0359 0,0.0598 0.20324,0.26302 1.19551,1.20747 1.865,3.18007 1.865,5.61893 0,2.3193 -0.56189,4.31581 -1.94869,5.72652 -0.11955,0.1076 -0.11955,0.13151 -0.11955,0.16738 0,0.0717 0.0598,0.0956 0.10759,0.0956 0.15542,0 1.13575,-0.86078 1.72155,-2.03238 0.60971,-1.21943 0.88468,-2.51059 0.88468,-3.94521 z"
         id="use71" />
      <path
         inkscape:connector-curvature="0"
         d="m 224.29694,60.014943 c 0.20324,0 0.41843,0 0.41843,-0.2391 0,-0.23911 -0.21519,-0.23911 -0.41843,-0.23911 h -6.46774 c -0.20324,0 -0.41843,0 -0.41843,0.23911 0,0.2391 0.21519,0.2391 0.41843,0.2391 z"
         id="use73" />
      <path
         inkscape:connector-curvature="0"
         d="m 233.70565,57.958653 c 0.2391,0 0.33474,0 0.33474,-0.22715 0,-0.11955 -0.0956,-0.11955 -0.31083,-0.11955 h -0.96837 c 0.22715,-1.23138 0.39452,-2.0802 0.49016,-2.46276 0.0717,-0.28693 0.32279,-0.5619 0.63362,-0.5619 0.25106,0 0.50212,0.1076 0.62167,0.2152 -0.46625,0.0478 -0.60971,0.39452 -0.60971,0.59776 0,0.2391 0.17933,0.38256 0.40647,0.38256 0.23911,0 0.59776,-0.20324 0.59776,-0.65753 0,-0.50212 -0.50211,-0.77709 -1.02814,-0.77709 -0.51407,0 -1.01619,0.38257 -1.25529,0.84882 -0.2152,0.41843 -0.33475,0.84882 -0.60972,2.41494 h -0.80099 c -0.22715,0 -0.3467,0 -0.3467,0.2152 0,0.1315 0.0717,0.1315 0.31083,0.1315 h 0.76513 c -0.21519,1.11183 -0.70535,3.8137 -0.98032,5.0929 -0.20324,1.0401 -0.38257,1.91283 -0.98033,1.91283 -0.0359,0 -0.38256,0 -0.59775,-0.22715 0.60971,-0.0478 0.60971,-0.57385 0.60971,-0.5858 0,-0.2391 -0.17933,-0.38257 -0.40648,-0.38257 -0.2391,0 -0.59775,0.20324 -0.59775,0.65754 0,0.51407 0.52602,0.77708 0.99227,0.77708 1.21943,0 1.72155,-2.18779 1.85306,-2.78555 0.21519,-0.92055 0.80099,-4.10062 0.86077,-4.45928 z"
         id="use75" />
      <path
         inkscape:connector-curvature="0"
         d="m 239.30552,65.669743 c 0,-0.0359 0,-0.0598 -0.20324,-0.26302 -1.19552,-1.20747 -1.865,-3.18007 -1.865,-5.61893 0,-2.3193 0.56189,-4.31581 1.94869,-5.72652 0.11955,-0.1076 0.11955,-0.13151 0.11955,-0.16738 0,-0.0717 -0.0598,-0.0956 -0.1076,-0.0956 -0.15541,0 -1.13574,0.86078 -1.72154,2.03238 -0.60972,1.20747 -0.88468,2.48668 -0.88468,3.95716 0,1.06401 0.16737,2.48668 0.78904,3.76588 0.70535,1.43462 1.68568,2.21171 1.81718,2.21171 0.0478,0 0.1076,-0.0239 0.1076,-0.0956 z"
         id="use77" />
      <path
         inkscape:connector-curvature="0"
         d="m 245.63916,57.886923 c -0.38256,0.0717 -0.52603,0.35866 -0.52603,0.58581 0,0.28692 0.22715,0.38256 0.39453,0.38256 0.35865,0 0.60971,-0.31083 0.60971,-0.63362 0,-0.50212 -0.57385,-0.72927 -1.07597,-0.72927 -0.72926,0 -1.13574,0.71731 -1.24333,0.94446 -0.27497,-0.89664 -1.01619,-0.94446 -1.23139,-0.94446 -1.21942,0 -1.865,1.56613 -1.865,1.82914 0,0.0478 0.0478,0.1076 0.1315,0.1076 0.0956,0 0.11956,-0.0717 0.14347,-0.11955 0.40647,-1.32703 1.20747,-1.57809 1.55417,-1.57809 0.53798,0 0.64558,0.50212 0.64558,0.78904 0,0.26302 -0.0717,0.53799 -0.2152,1.11184 l -0.40647,1.63785 c -0.17933,0.71731 -0.52603,1.37485 -1.15965,1.37485 -0.0598,0 -0.35866,0 -0.60972,-0.15542 0.43039,-0.0837 0.52603,-0.44234 0.52603,-0.5858 0,-0.23911 -0.17933,-0.38257 -0.40647,-0.38257 -0.28693,0 -0.59776,0.25106 -0.59776,0.63363 0,0.50211 0.56189,0.72926 1.07596,0.72926 0.57385,0 0.98033,-0.4543 1.23138,-0.94446 0.19129,0.70536 0.78905,0.94446 1.23139,0.94446 1.21942,0 1.865,-1.56613 1.865,-1.82914 0,-0.0598 -0.0478,-0.1076 -0.11955,-0.1076 -0.10759,0 -0.11955,0.0598 -0.15542,0.15542 -0.32279,1.05206 -1.01618,1.54222 -1.55417,1.54222 -0.41843,0 -0.64558,-0.31084 -0.64558,-0.801 0,-0.26301 0.0478,-0.45429 0.23911,-1.24334 l 0.41843,-1.6259 c 0.17933,-0.71731 0.5858,-1.24334 1.13574,-1.24334 0.0239,0 0.35865,0 0.60971,0.15542 z"
         id="use79" />
      <path
         inkscape:connector-curvature="0"
         d="m 249.99585,59.787793 c 0,-0.90859 -0.11955,-2.39103 -0.78904,-3.77783 -0.70535,-1.43462 -1.68568,-2.21171 -1.81718,-2.21171 -0.0478,0 -0.1076,0.0239 -0.1076,0.0956 0,0.0359 0,0.0598 0.20324,0.26302 1.19552,1.20747 1.865,3.18007 1.865,5.61893 0,2.3193 -0.56189,4.31581 -1.94869,5.72652 -0.11955,0.1076 -0.11955,0.13151 -0.11955,0.16738 0,0.0717 0.0598,0.0956 0.1076,0.0956 0.15541,0 1.13574,-0.86078 1.72154,-2.03238 0.60972,-1.21943 0.88468,-2.51059 0.88468,-3.94521 z"
         id="use81" />
      <rect
         x="169.80211"
         y="67.624504"
         height="0.47818699"
         width="81.374702"
         id="rect83" />
      <path
         inkscape:connector-curvature="0"
         d="m 210.4796,71.055045 c 0.012,-0.0478 0.0359,-0.11955 0.0359,-0.17933 0,-0.11955 -0.11956,-0.11955 -0.14347,-0.11955 -0.012,0 -0.59776,0.0478 -0.65753,0.0598 -0.20324,0.0119 -0.38257,0.0359 -0.59776,0.0478 -0.29888,0.0239 -0.38256,0.0359 -0.38256,0.25106 0,0.11955 0.0956,0.11955 0.26301,0.11955 0.5858,0 0.59776,0.1076 0.59776,0.22715 0,0.0717 -0.0239,0.16737 -0.0359,0.20324 l -1.7335,6.92204 c -0.0478,0.17933 -0.0478,0.20324 -0.0478,0.27497 0,0.26301 0.20324,0.31083 0.32279,0.31083 0.20324,0 0.35865,-0.15542 0.41843,-0.28692 l 0.53798,-2.16389 c 0.0598,-0.26301 0.13151,-0.51407 0.19128,-0.77708 0.13151,-0.50212 0.13151,-0.51408 0.35866,-0.86078 0.22715,-0.3467 0.76513,-1.06401 1.68568,-1.06401 0.4782,0 0.64558,0.35866 0.64558,0.83687 0,0.66948 -0.46625,1.9726 -0.72927,2.68991 -0.10759,0.28692 -0.16737,0.44234 -0.16737,0.65753 0,0.53799 0.37061,0.96837 0.94446,0.96837 1.11183,0 1.53026,-1.75741 1.53026,-1.82914 0,-0.0598 -0.0478,-0.1076 -0.11955,-0.1076 -0.1076,0 -0.11955,0.0359 -0.17933,0.23911 -0.27497,0.95641 -0.71731,1.45853 -1.19552,1.45853 -0.11955,0 -0.31083,-0.012 -0.31083,-0.39452 0,-0.31084 0.14346,-0.6934 0.19128,-0.82491 0.21519,-0.57385 0.75318,-1.98456 0.75318,-2.67796 0,-0.71731 -0.41843,-1.25529 -1.32703,-1.25529 -0.68144,0 -1.2792,0.32279 -1.76936,0.94446 z"
         id="use85" />
    </g>
    <g
       id="g4786"
       transform="matrix(0.82810491,0,0,0.82810491,210.465,9.4687379)">
      <path
         sodipodi:nodetypes="cc"
         inkscape:connector-curvature="0"
         id="path2373-6"
         d="m 807.94709,387.04741 129.31601,-0.1871"
         style="fill:none;stroke:#000000;stroke-width:0.37420103;stroke-linecap:butt;stroke-linejoin:miter;stroke-miterlimit:4;stroke-dasharray:0.37420103, 4.49041233;stroke-dashoffset:0;stroke-opacity:1" />
      <path
         inkscape:connector-curvature="0"
         sodipodi:nodetypes="cc"
         inkscape:transform-center-y="-23.448733"
         inkscape:transform-center-x="-35.498866"
         id="path4415-3"
         d="M 937.34358,302.34288 807.54214,388.28564"
         style="fill:none;fill-rule:evenodd;stroke:#8f008f;stroke-width:0.53098536;stroke-linecap:butt;stroke-linejoin:miter;stroke-miterlimit:4;stroke-dasharray:none;stroke-opacity:1" />
      <path
         sodipodi:nodetypes="cc"
         inkscape:connector-curvature="0"
         id="path4753"
         d="M 937.34358,302.34288 V 386.7161"
         style="fill:none;stroke:#000000;stroke-width:1;stroke-linecap:butt;stroke-linejoin:miter;stroke-miterlimit:4;stroke-dasharray:3, 3;stroke-dashoffset:0;stroke-opacity:1" />
      <path
         inkscape:connector-curvature="0"
         id="path4757"
         d="M 921.68915,371.06165 V 386.7161"
         style="fill:none;stroke:#000000;stroke-width:1px;stroke-linecap:butt;stroke-linejoin:miter;stroke-opacity:1" />
      <path
         inkscape:connector-curvature="0"
         id="path4759"
         d="M 937.3436,371.06165 H 921.68915"
         style="fill:none;stroke:#000000;stroke-width:1px;stroke-linecap:butt;stroke-linejoin:miter;stroke-opacity:1" />
      <path
         inkscape:connector-curvature="0"
         id="path2020-8"
         d="m 834.54879,370.36542 c 5.81706,4.4828 5.01008,10.9307 2.50782,16.69679"
         style="fill:none;stroke:#000000;stroke-width:0.52796167px;stroke-linecap:butt;stroke-linejoin:miter;stroke-opacity:1" />
      <path
         inkscape:connector-curvature="0"
         id="path2022-6"
         d="m 831.19954,377.26191 c -0.0672,0.98949 -0.29538,2.00413 -0.69296,2.9203 -0.36179,0.83369 -3.29714,3.65357 -2.57381,1.12191 0.20777,-0.7272 3.55181,2.4229 6.02206,-0.16499"
         style="fill:none;stroke:#000000;stroke-width:0.52796167px;stroke-linecap:butt;stroke-linejoin:miter;stroke-opacity:1" />
    </g>
    <path
       style="fill:none;fill-rule:evenodd;stroke:#000000;stroke-width:2;stroke-linecap:butt;stroke-linejoin:miter;stroke-miterlimit:4;stroke-dasharray:8, 8;stroke-dashoffset:2.5999999;stroke-opacity:1"
       d="M 1232.6887,789.72289 V 709.02433 H 982.10774"
       id="path4417-7"
       inkscape:connector-curvature="0" />
    <path
       style="fill:#000000;fill-opacity:1;fill-rule:evenodd;stroke:none;stroke-width:1px;stroke-linecap:butt;stroke-linejoin:miter;stroke-opacity:1"
       d="m 977.30988,363.32347 5,-19.00391 5.00391,19.00391 z"
       id="path4397-0"
       inkscape:connector-curvature="0" />
    <path
       style="fill:none;fill-rule:evenodd;stroke:#000000;stroke-width:2;stroke-linecap:butt;stroke-linejoin:miter;stroke-miterlimit:4;stroke-dasharray:none;stroke-opacity:1"
       d="M 982.30989,362.86205 V 822.07957"
       id="path4399-9"
       sodipodi:nodetypes="cc"
       inkscape:connector-curvature="0" />
    <path
       id="path4401-2"
       d="m 1623.2893,784.82591 19.0039,5 -19.0039,5.00391 z"
       style="fill:#000000;fill-opacity:1;fill-rule:evenodd;stroke:none;stroke-width:1px;stroke-linecap:butt;stroke-linejoin:miter;stroke-opacity:1"
       inkscape:connector-curvature="0" />
    <path
       sodipodi:nodetypes="cc"
       id="path4403-7"
       d="M 1626.2507,789.82591 H 946.53321"
       style="fill:none;fill-rule:evenodd;stroke:#000000;stroke-width:2;stroke-linecap:butt;stroke-linejoin:miter;stroke-miterlimit:4;stroke-dasharray:none;stroke-opacity:1"
       inkscape:connector-curvature="0" />
    <path
       style="fill:none;fill-rule:evenodd;stroke:#008f8f;stroke-width:3;stroke-linecap:butt;stroke-linejoin:miter;stroke-miterlimit:4;stroke-dasharray:none;stroke-opacity:1"
       d="m 1033.3138,764.32347 c 0,0 133.7872,-31.12876 199.2507,-55.51944 303.2719,-113.0875 384.8787,-324.16494 384.8787,-324.16494"
       id="path4413-6"
       sodipodi:nodetypes="csc"
       inkscape:connector-curvature="0" />
    <path
       style="fill:none;fill-rule:evenodd;stroke:#8f008f;stroke-width:2;stroke-linecap:butt;stroke-linejoin:miter;stroke-miterlimit:4;stroke-dasharray:none;stroke-opacity:1"
       d="M 1625.6128,573.39881 1005.8902,789.62906"
       id="path4415-5"
       inkscape:transform-center-x="-133.70941"
       inkscape:transform-center-y="-88.321579"
       sodipodi:nodetypes="cc"
       inkscape:connector-curvature="0" />
    <text
       xml:space="preserve"
       style="font-style:italic;font-variant:normal;font-weight:normal;font-stretch:normal;line-height:0%;font-family:'Times New Roman';-inkscape-font-specification:'Times New Roman Italic';text-align:start;writing-mode:lr-tb;text-anchor:start;fill:#000000;fill-opacity:1;stroke:none;stroke-width:1px;stroke-linecap:butt;stroke-linejoin:miter;stroke-opacity:1"
       x="1225.7061"
       y="815.62067"
       id="text4421-2"><tspan
         sodipodi:role="line"
         id="tspan4423-6"
         x="1225.7061"
         y="815.62067"
         style="font-size:36px;line-height:1.25">x</tspan></text>
    <text
       xml:space="preserve"
       style="font-style:italic;font-variant:normal;font-weight:normal;font-stretch:normal;line-height:0%;font-family:'Times New Roman';-inkscape-font-specification:'Times New Roman Italic';text-align:start;writing-mode:lr-tb;text-anchor:start;fill:#000000;fill-opacity:1;stroke:none;stroke-width:1px;stroke-linecap:butt;stroke-linejoin:miter;stroke-opacity:1"
       x="920.14478"
       y="718.52148"
       id="text4476-3"><tspan
         sodipodi:role="line"
         id="tspan4478-4"
         x="920.14478"
         y="718.52148"
         style="font-size:36px;line-height:1.25">f(x)</tspan></text>
    <path
       style="fill:none;stroke:#000000;stroke-width:1px;stroke-linecap:butt;stroke-linejoin:miter;stroke-opacity:1"
       d="m 1097.4634,757.19847 c 11.0179,8.49077 9.4895,20.70358 4.75,31.625"
       id="path2020-0"
       inkscape:connector-curvature="0" />
    <path
       style="fill:none;stroke:#000000;stroke-width:1px;stroke-linecap:butt;stroke-linejoin:miter;stroke-opacity:1"
       d="m 1091.1196,770.26097 c -0.1272,1.87416 -0.5594,3.79597 -1.3125,5.53125 -0.6852,1.57909 -6.245,6.92015 -4.875,2.125 0.3936,-1.37737 6.7274,4.58916 11.4063,-0.3125"
       id="path2022-4"
       inkscape:connector-curvature="0" />
  </g>
</svg>
